<?xml version="1.0" encoding="iso-8859-1"?>
<!-- Generator: Adobe Illustrator 19.0.0, SVG Export Plug-In . SVG Version: 6.00 Build 0)  -->
<svg version="1.1" id="Layer_1" xmlns="http://www.w3.org/2000/svg" xmlns:xlink="http://www.w3.org/1999/xlink" x="0px" y="0px"
	 viewBox="0 0 512 512" style="enable-background:new 0 0 512 512;" xml:space="preserve">
<g>
	<g>
		<polygon points="445.217,161.391 445.217,94.609 411.826,94.609 411.826,61.217 378.435,61.217 378.435,27.826 256,27.826 
			256,61.217 222.609,61.217 222.609,94.609 189.217,94.609 189.217,161.391 144.696,161.391 144.696,128 100.174,128 
			100.174,94.609 66.783,94.609 66.783,61.217 0,61.217 0,250.435 33.391,250.435 33.391,283.826 66.783,283.826 66.783,317.217 
			133.565,317.217 133.565,350.609 100.174,350.609 100.174,384 66.783,384 66.783,417.391 33.391,417.391 33.391,484.174 
			345.043,484.174 345.043,450.783 378.435,450.783 378.435,417.391 411.826,417.391 411.826,384 445.217,384 445.217,261.565 
			478.609,261.565 478.609,228.174 512,228.174 512,161.391 		"/>
	</g>
</g>
<g>
</g>
<g>
</g>
<g>
</g>
<g>
</g>
<g>
</g>
<g>
</g>
<g>
</g>
<g>
</g>
<g>
</g>
<g>
</g>
<g>
</g>
<g>
</g>
<g>
</g>
<g>
</g>
<g>
</g>
</svg>
